<?xml version="1.0" encoding="utf-8"?>
<!-- Generator: Adobe Illustrator 24.1.3, SVG Export Plug-In . SVG Version: 6.00 Build 0)  -->
<svg version="1.1" id="Ebene_1" xmlns="http://www.w3.org/2000/svg" xmlns:xlink="http://www.w3.org/1999/xlink" x="0px" y="0px"
	 viewBox="0 0 744.2 279.2" style="enable-background:new 0 0 744.2 279.2;" xml:space="preserve">
<style type="text/css">
	.st0{fill:#3C3C3C;}
	.st1{fill:#E01C15;}
</style>
<g>
	<path class="st0" d="M198.7,132c0-7.8-5.2-15.7-22-15.7c-21.2,0-38.5,18.3-38.5,45.4c0,14.3,6.8,21.8,24.1,21.8
		c9,0,17.9-1.4,25.5-4.2v-12.7c-6.3,2.5-13.3,3.9-19.8,3.9c-9.4,0-12.5-2.2-12.5-9.6c0-1.4,0.3-3.6,0.4-5.1
		C182.6,155,198.7,147.4,198.7,132z M174.8,128.5c4.4,0,7,2.1,7,5.7c0,6.9-8.2,10-23.9,10.5C160.3,136.3,165.9,128.5,174.8,128.5z"
		/>
	<path class="st0" d="M569.6,116.1c-11.1,0-19.5,7.2-25.6,16.5l2.9-15.1c0,0,0,0,0,0h0H530c-1.5,9-3.7,20.4-5.9,30.8l-6.8,33.8h17.1
		l0,0l0,0l3.3-16.4c3-15.1,15.3-35.4,24.5-35.4c4.4,0,5.7,3.2,4.1,11.2l-8.2,40.6h17.2l8.9-44.6C586.7,125,582.7,116.1,569.6,116.1z
		"/>
	<polygon class="st0" points="657,122.2 643.6,113.8 614,143.9 625.4,87.3 625.4,87.3 607.6,90.9 589.3,182.2 606.4,182.2 
		612.9,149.8 627.3,182.2 648,182.2 629.9,147.3 	"/>
	<path class="st0" d="M116.7,131.9l3.3-17.8h0l-17.2,3.5c-1.5,8.7-4.2,22.9-5.9,30.8l-6.8,33.8h17.1l2.9-14
		c4.5-21.8,16.4-38.9,26.4-35.9l3.7-16C130,114.7,123.1,121.2,116.7,131.9z"/>
	<path class="st0" d="M296.5,89.1c-6,0-11.5,4.5-11.6,10.5c-0.1,5.1,4.1,9.6,10.1,9.6c6,0,11.5-4.5,11.6-10.8
		C306.8,93.5,302.4,89.1,296.5,89.1z"/>
	<path class="st0" d="M345.4,116.2c-21.9,0-40.9,17-40.9,44.1c0,14.6,7.5,23.1,26.5,23.1c21.3,0,41.1-17,41.1-43.7
		C372.1,126.1,364.8,116.2,345.4,116.2z M333.4,169.2c-7.9,0-10.9-4.4-10.9-11.4c0-12.9,7.7-27.3,20.4-27.3c7.9,0,11.2,4,11.2,11.4
		C354,156.3,345.5,169.2,333.4,169.2z"/>
	<path class="st0" d="M448.2,163.4c0,13.8,5.6,20.2,16,20.2c11.1,0,19.4-8.4,25.1-16.6l-3,15.2h17.1h0.1c0.3-1.9,8.4-43.5,12.5-63.8
		c-7.7-1.4-15.9-2-24.1-2C462,116.4,448.2,139,448.2,163.4z M495.6,134.4c-2.7,13.6-14.9,34.8-24.6,34.8c-3.4,0-5.2-2.6-5.2-9
		c0-13.5,7.3-30.9,23-30.9c3,0,5.5,0.4,7.7,0.9L495.6,134.4z"/>
	<path class="st1" d="M426.3,115.7c-8.9,0-17.3,5.1-24.2,14.7l9.7-46.7l0.1-0.6l-18.7,3.8l-19,94l-0.1,0.4l0.4,0.1
		c7.5,1.6,15.4,2.4,24.2,2.4c14,0,25.5-5,33.3-14.5c6.9-8.4,10.7-20.1,10.7-33C442.7,122.7,437.2,115.7,426.3,115.7z M424.3,139.4
		c0,7.2-2.1,14.8-5.5,20.3c-2.9,4.7-8.2,10.2-17.1,10.2c-2.9,0-5.2-0.4-7.2-0.8l0.9-4c1.4-6.7,5.1-15.4,9.6-22.2
		c5-7.7,10.3-12.1,14.5-12.1C422.7,130.9,424.3,133.7,424.3,139.4z"/>
	<polygon class="st0" points="270.5,182.2 287.6,182.2 300.6,117.5 283.5,117.5 	"/>
	<path class="st0" d="M245.2,116.4c-29.8,0-43.7,22.6-43.7,47.1c0,13.8,5.6,20.2,16,20.2c11.1,0,19.4-8.3,25-16.4l-3.6,18
		c-2.5,10.9-9.9,15.4-22.4,15.4c-6,0-12.9-0.3-18.3-2.4l-2.9,14.2c5.1,1.4,11.2,2.3,18.1,2.3c26.5,0,38.5-10.7,42-28.5l13.7-67.9
		C261.7,116.9,253.5,116.4,245.2,116.4z M249.1,134.4c-2.7,13.6-14.9,34.8-24.6,34.8c-3.4,0-5.2-2.6-5.2-9c0-13.5,7.3-30.9,23-30.9
		c3,0,5.5,0.4,7.7,0.9L249.1,134.4z"/>
</g>
</svg>
