<?xml version="1.0"?>
<svg xmlns="http://www.w3.org/2000/svg" width="243" height="32">
<path d="M41.94 3.52a2.52 2.52 0 0 0-2.51-2.47 2.47 2.47 0 0 0-2.52 2.47 2.46 2.46 0 0 0 2.52 2.56 2.5 2.5 0 0 0 2.51-2.56zm44.7 21.46-.12-.96h-.73c-1.63 0-1.63-.83-1.63-3.7V.06c-1.93 0-3.54.22-6.55.83v.93c.15 0 .59-.07 1.03-.07 1.22 0 1.22 1.41 1.22 4.56v2.96c-.69-.1-1.34-.22-2.4-.22-2.97 0-10.3 1.2-10.3 9.42 0 5.47 3.96 8 7.94 8 2.32 0 4.03-1.14 4.93-1.65l.93 1.66a31.2 31.2 0 0 0 5.69-1.51zM20.93 8.42c0-.58-.34-5.4-.49-6.2H.46C.32 3.02 0 7.84 0 8.42h1.3C2.21 4.54 2.6 3.6 6.68 3.6h1.44v17.16c0 3.66 0 3.88-2.34 4.15l-.86.12v.93H16v-.93l-.85-.12c-2.35-.27-2.35-.49-2.35-4.15V3.6h1.44c4.06 0 4.45.95 5.4 4.83h1.3zm23.15 17.53v-.93l-.76-.07c-1.3-.12-1.49-.51-1.49-2.42V9.06c-1.85.12-3.83.39-6.54 1.3v1.04c.14-.05.6-.22 1.15-.22 1.1 0 1.1 1.61 1.1 2.88v8.47c0 1.9-.2 2.3-1.5 2.42l-.75.07v.93h8.79zm-10.5-15.3c-.51-.54-1.42-1.6-2.93-1.6-1.83 0-3.32 1.74-4.05 2.5 0-1.08-.17-1.83-.3-2.5-2.58.4-3.34.67-6.03 1.55v.95a3.2 3.2 0 0 1 1.15-.22c1.08 0 1.08 1.6 1.08 2.88v8.32c0 1.9-.18 2.3-1.47 2.42l-.76.07v.93h9.5v-.93l-1.44-.2c-1.51-.16-1.51-.63-1.51-3.19v-8.72c.46-.58.9-.73 1.44-.73.49 0 2.58.88 3.15 1a5.3 5.3 0 0 0 2.17-2.54zM120.2 21.3c0-5.49-8.08-4.88-8.08-8.66 0-1.25.88-2.23 2-2.23 2.67 0 3.45 2.91 3.57 4.1h1.44c0-1.46-.05-3.05-.41-4.46-.86-.47-2.4-1-4.3-1-6.4 0-6.4 4.42-6.4 4.71 0 5.76 8.08 4.71 8.08 8.98 0 1.3-.85 2.37-2.36 2.37-2.71 0-4.33-2.88-4.55-4.86h-1.44c0 2.18.3 3.69.66 5.1 1.3.67 2.83 1.13 4.96 1.13 4.86 0 6.83-2.42 6.83-5.18zm-14.67-3.88c0-5.78-4.25-8.37-8.93-8.37-4.54 0-9.13 2.73-9.13 8.9 0 6.06 4.27 8.53 8.86 8.53 4.61 0 9.2-2.66 9.2-9.06zm-41.26 0c0-5.78-4.22-8.37-8.93-8.37-4.54 0-9.13 2.73-9.13 8.9 0 6.06 4.27 8.53 8.86 8.53 4.61 0 9.2-2.66 9.2-9.06zm15.58 6.32a3.5 3.5 0 0 1-2.1.66c-2.86 0-6-2.8-6-7.66 0-3.64 1.85-6.33 5-6.33 1.73 0 2.41.66 3.1 1.27v12.06zm21.1-5.56c0 2.83-.81 6.93-4.16 6.93-3.44 0-4.73-4.12-4.73-7.9 0-2.99.9-6.8 4.17-6.8 3.64 0 4.71 3.98 4.71 7.77zm-41.27 0c0 2.83-.8 6.93-4.12 6.93-3.47 0-4.76-4.12-4.76-7.9 0-2.99.9-6.8 4.17-6.8 3.64 0 4.71 3.98 4.71 7.77z
M242.53 25.95v-.93c-1.44 0-1.76-.36-7.47-9.42 4-4.1 4.03-4.64 6.18-4.96l.68-.1V9.6h-7.94v.96l1.15.12c.51.07 1.12.2 1.12.49 0 .53-.36 1.02-1.6 2.51l-1.2 1.37c-1.35 1.49-2.08 1.56-3.37 1.56V.07c-1.96 0-3.57.22-6.54.83v.93c.14 0 .56-.07 1-.07 1.22 0 1.22 1.41 1.22 4.56v16.21c0 1.9-.22 2.3-1.47 2.42l-.75.07v.93h8.76v-.93l-.76-.07c-1.3-.12-1.46-.51-1.46-2.42v-4.56h.39c1.51 0 1.54.98 3.42 3.78 1.85 2.88 2.07 4.2 5.9 4.2h2.74zm-59.94-6.76c0-4.42-3.83-5.86-6.08-6.18v-.07c1.9-.56 4.94-1.9 4.94-5.74 0-4.98-5.96-4.98-7.7-4.98h-10.71v.95l.88.1c1.68.22 1.68.22 1.68 4.2v13.16c0 4.05.02 4.05-1.68 4.27l-.88.12v.93h9.35c5.34 0 10.2-1.51 10.2-6.76zm39.53 6.76v-.93l-.76-.07c-1.3-.12-1.46-.51-1.46-2.42v-7.08c0-4.85-2.2-6.4-5.42-6.4a8.1 8.1 0 0 0-5.7 2.1v-2.1c-1.85.13-3.75.4-6.46 1.3v1.05c.15-.05.61-.22 1.15-.22 1.07 0 1.07 1.61 1.07 2.88v8.47c0 1.9-.17 2.3-1.4 2.42l-.75.07v.93h8.7v-.93l-.76-.07c-1.3-.12-1.47-.51-1.47-2.42V12.5a4 4 0 0 1 2.98-1.34c3.74 0 3.74 3.44 3.74 6.27v5.1c0 1.9-.17 2.3-1.47 2.42l-.76.07v.93h8.77zm-20.9-.36-.12-.47c-.1.05-.17.05-.3.05-2.29 0-2.29-2.66-2.29-5.25V15.5c0-4.1-.78-6.44-5.32-6.44-3.61 0-6.1 2.05-7.72 3.8.3.89.47 1.15.98 1.84h.34c.47-1.08 1.52-3.54 4.27-3.54 2.57 0 3.15 1.9 3.15 4v.88c-3 .78-9.32 2-9.32 6.54 0 2.3 1.9 3.9 4.71 3.9 2.51 0 3.98-1.11 5-1.82.57.9 1.23 1.83 3.52 1.83 1.59 0 2.61-.64 3.1-.9zM176.78 8.06c0 3.88-2.44 4.64-5.17 4.64h-1.35V3.86a5.8 5.8 0 0 1 1.83-.27c2.79 0 4.7 1.7 4.7 4.47zm1.15 11.64c0 2.83-1.44 4.88-4.76 4.88-.95 0-1.98-.21-2.9-.56v-9.96h1.53c4.37 0 6.13 2.81 6.13 5.64zm16.4 3.84c-.26.21-.95.87-2.17.87-1.63 0-2.66-1.29-2.66-3.02 0-2.66 2.25-3.74 4.3-3.74.15 0 .27.03.41.03v3.93c0 .68.1 1.58.13 1.93z" fill="#002d67"/>
<path d="M157.92 16.11c0-4.4-1.88-8.64-4.38-11.15-1.56-1.57-3-2.54-5.12-3.47l-.22.39c1 .61 1.83 1.24 2.8 2.22 2.76 2.66 4.6 7.25 4.6 11.04 0 .56 0 1.73-.08 2.54a9.81 9.81 0 0 0-2.7-4.74c-.42-.4-.98-1-1.42-1.22 0 .83-.32 2.73-.71 3.86.54.41.83.75 1.32 1.22 1.14 1.17 1.9 2.68 1.9 3.95 0 .71-.32 1.47-.9 2.03a4.36 4.36 0 0 1-2.93 1.02 9 9 0 0 1-4.57-1.56 16.65 16.65 0 0 0 4.35-7.64c.36-1.3.54-2.59.54-3.88 0-2.35-.59-4.57-1.6-6.33-1.6-2.8-4.04-4.39-7.24-4.39-3.81 0-7.38 1.88-10.04 4.57a15.15 15.15 0 0 0-4.42 12.84h.44c.03-1.15.17-2.25.5-3.57.6-2.41 2.26-5.08 4.34-7.15a18 18 0 0 1 5.3-3.59 9.76 9.76 0 0 0-3.2 6.54c.7-.44 2.51-1.07 3.66-1.27.24-1.66.85-3.49 2.07-4.7a3.1 3.1 0 0 1 2.25-1c1.37 0 2.44 1 3.13 2.14.68 1.2 1.1 3.32.92 4.76a15.6 15.6 0 0 0-4.4-.66c-1.4 0-2.85.22-4.41.66a14.89 14.89 0 0 0-6.47 3.61c-1.76 1.79-3.12 4.23-3.12 6.74 0 2.61 1.34 4.81 3.1 6.62a16.12 16.12 0 0 0 11.28 4.44 15.1 15.1 0 0 0 9.03-3.12l-.22-.37a14 14 0 0 1-6.98 1.76c-3.84 0-7.5-1.17-10.36-3.32a9.3 9.3 0 0 0 2.57.41c1.24 0 3.54-.36 4.66-1.02a15.42 15.42 0 0 1-2.98-2.54 9.99 9.99 0 0 1-3.59.76c-1.12 0-2.34-.25-3.12-1.08a2.99 2.99 0 0 1-.76-1.93c0-1.51.83-2.78 1.83-3.8a9 9 0 0 1 2.44-1.81 16.66 16.66 0 0 0 4.42 7.69c2.74 2.7 6.3 4.2 9.43 4.2a7.87 7.87 0 0 0 6.05-2.32c1.8-1.83 3-5.08 3-8.38zm-11.87-2.51a15.24 15.24 0 0 1-3.86 6.1 14.72 14.72 0 0 1-3.34-6.37c.97-.22 1.98-.32 3-.32 1.42 0 2.83.22 4.2.59z" fill="#00937b"/>
</svg>